<svg width="24" height="24" viewBox="0 0 24 24" fill="none" xmlns="http://www.w3.org/2000/svg">
<path d="M20.2499 10.5V6" stroke="white" stroke-width="1.5" stroke-linecap="round" stroke-linejoin="round"/>
<path d="M22.4999 8.25H17.9999" stroke="white" stroke-width="1.5" stroke-linecap="round" stroke-linejoin="round"/>
<path d="M15.7499 2.25V5.25" stroke="white" stroke-width="1.5" stroke-linecap="round" stroke-linejoin="round"/>
<path d="M17.2499 3.75H14.2499" stroke="white" stroke-width="1.5" stroke-linecap="round" stroke-linejoin="round"/>
<path d="M20.3155 14.3063C18.843 14.7192 17.2871 14.7328 15.8077 14.3455C14.3282 13.9583 12.9785 13.1842 11.8971 12.1029C10.8157 11.0215 10.0417 9.67175 9.65441 8.19229C9.26717 6.71282 9.28071 5.15695 9.69362 3.68445C8.24187 4.08852 6.92132 4.86591 5.8635 5.93917C4.80569 7.01243 4.04753 8.34411 3.66455 9.80157C3.28156 11.259 3.28712 12.7914 3.68066 14.246C4.0742 15.7007 4.84199 17.0268 5.90755 18.0924C6.97312 19.158 8.29927 19.9257 9.75391 20.3193C11.2086 20.7128 12.7409 20.7184 14.1984 20.3354C15.6558 19.9524 16.9875 19.1943 18.0608 18.1364C19.134 17.0786 19.9114 15.7581 20.3155 14.3063Z" stroke="white" stroke-width="1.5" stroke-linecap="round" stroke-linejoin="round"/>
</svg>
